<svg width="25" height="25" viewBox="0 0 25 25" fill="none" xmlns="http://www.w3.org/2000/svg">
    <mask id="path-1-inside-1_277_142" fill="white">
        <path fill-rule="evenodd" clip-rule="evenodd" d="M22.6777 1.46449C20.7251 -0.488132 17.5592 -0.488132 15.6066 1.46449L12.071 5.0001L8.53561 1.46471C6.58298 -0.487911 3.41716 -0.487911 1.46454 1.46471C-0.488083 3.41733 -0.488082 6.58316 1.46454 8.53578L4.99993 12.0712L1.46447 15.6066C-0.488151 17.5592 -0.488151 20.7251 1.46447 22.6777C3.41709 24.6303 6.58292 24.6303 8.53554 22.6777L12.071 19.1422L15.6067 22.6779C17.5593 24.6305 20.7251 24.6305 22.6777 22.6779C24.6304 20.7253 24.6304 17.5595 22.6777 15.6068L19.1421 12.0712L22.6777 8.53556C24.6303 6.58294 24.6303 3.41711 22.6777 1.46449Z"/>
    </mask>
    <path fill-rule="evenodd" clip-rule="evenodd" d="M22.6777 1.46449C20.7251 -0.488132 17.5592 -0.488132 15.6066 1.46449L12.071 5.0001L8.53561 1.46471C6.58298 -0.487911 3.41716 -0.487911 1.46454 1.46471C-0.488083 3.41733 -0.488082 6.58316 1.46454 8.53578L4.99993 12.0712L1.46447 15.6066C-0.488151 17.5592 -0.488151 20.7251 1.46447 22.6777C3.41709 24.6303 6.58292 24.6303 8.53554 22.6777L12.071 19.1422L15.6067 22.6779C17.5593 24.6305 20.7251 24.6305 22.6777 22.6779C24.6304 20.7253 24.6304 17.5595 22.6777 15.6068L19.1421 12.0712L22.6777 8.53556C24.6303 6.58294 24.6303 3.41711 22.6777 1.46449Z" fill="#F0F0F0"/>
    <path d="M15.6066 1.46449L16.3137 2.1716L16.3137 2.1716L15.6066 1.46449ZM22.6777 1.46449L21.9706 2.1716L21.9706 2.1716L22.6777 1.46449ZM12.071 5.0001L11.3639 5.70721L12.071 6.41431L12.7781 5.70721L12.071 5.0001ZM8.53561 1.46471L9.24271 0.757604L9.24271 0.757604L8.53561 1.46471ZM1.46454 1.46471L2.17165 2.17182L1.46454 1.46471ZM1.46454 8.53578L2.17165 7.82867L2.17165 7.82867L1.46454 8.53578ZM4.99993 12.0712L5.70703 12.7783L6.41414 12.0712L5.70703 11.3641L4.99993 12.0712ZM1.46447 15.6066L0.757363 14.8995L0.757363 14.8995L1.46447 15.6066ZM1.46447 22.6777L0.757363 23.3848L0.757363 23.3848L1.46447 22.6777ZM8.53554 22.6777L9.24265 23.3848L9.24265 23.3848L8.53554 22.6777ZM12.071 19.1422L12.7781 18.4351L12.071 17.728L11.3639 18.4351L12.071 19.1422ZM22.6777 15.6068L23.3848 14.8997L23.3848 14.8997L22.6777 15.6068ZM19.1421 12.0712L18.435 11.3641L17.7278 12.0712L18.435 12.7783L19.1421 12.0712ZM16.3137 2.1716C17.8758 0.609499 20.4085 0.609499 21.9706 2.1716L23.3848 0.757382C21.0416 -1.58576 17.2426 -1.58576 14.8995 0.757383L16.3137 2.1716ZM12.7781 5.70721L16.3137 2.1716L14.8995 0.757383L11.3639 4.29299L12.7781 5.70721ZM7.8285 2.17182L11.3639 5.70721L12.7781 4.29299L9.24271 0.757604L7.8285 2.17182ZM2.17165 2.17182C3.73374 0.60972 6.2664 0.60972 7.8285 2.17182L9.24271 0.757604C6.89957 -1.58554 3.10058 -1.58554 0.757432 0.757603L2.17165 2.17182ZM2.17165 7.82867C0.609549 6.26657 0.609548 3.73391 2.17165 2.17182L0.757432 0.757603C-1.58571 3.10075 -1.58571 6.89974 0.757432 9.24288L2.17165 7.82867ZM5.70703 11.3641L2.17165 7.82867L0.757432 9.24288L4.29282 12.7783L5.70703 11.3641ZM2.17158 16.3137L5.70703 12.7783L4.29282 11.3641L0.757363 14.8995L2.17158 16.3137ZM2.17158 21.9706C0.60948 20.4085 0.60948 17.8758 2.17158 16.3137L0.757363 14.8995C-1.58578 17.2427 -1.58578 21.0417 0.757363 23.3848L2.17158 21.9706ZM7.82843 21.9706C6.26633 23.5327 3.73367 23.5327 2.17158 21.9706L0.757363 23.3848C3.10051 25.7279 6.8995 25.7279 9.24265 23.3848L7.82843 21.9706ZM11.3639 18.4351L7.82843 21.9706L9.24265 23.3848L12.7781 19.8493L11.3639 18.4351ZM16.3138 21.9708L12.7781 18.4351L11.3639 19.8493L14.8996 23.385L16.3138 21.9708ZM21.9706 21.9708C20.4085 23.5329 17.8759 23.5329 16.3138 21.9708L14.8996 23.385C17.2427 25.7282 21.0417 25.7282 23.3848 23.385L21.9706 21.9708ZM21.9706 16.314C23.5327 17.876 23.5327 20.4087 21.9706 21.9708L23.3848 23.385C25.728 21.0419 25.728 17.2429 23.3848 14.8997L21.9706 16.314ZM18.435 12.7783L21.9706 16.314L23.3848 14.8997L19.8492 11.3641L18.435 12.7783ZM21.9706 7.82845L18.435 11.3641L19.8492 12.7783L23.3848 9.24266L21.9706 7.82845ZM21.9706 2.1716C23.5327 3.73369 23.5327 6.26635 21.9706 7.82845L23.3848 9.24266C25.7279 6.89952 25.7279 3.10053 23.3848 0.757382L21.9706 2.1716Z" fill="black" mask="url(#path-1-inside-1_277_142)"/>
</svg>
