<svg width="100" height="100" viewBox="0 0 100 100" fill="none" xmlns="http://www.w3.org/2000/svg">
    <mask id="path-1-inside-1_273_136" fill="white">
        <path fill-rule="evenodd" clip-rule="evenodd" d="M60 5C60 2.23858 57.7614 0 55 0H45C42.2386 0 40 2.23858 40 5V35C40 37.7614 37.7614 40 35 40H5C2.23858 40 0 42.2386 0 45V55C0 57.7614 2.23858 60 5 60H35C37.7614 60 40 62.2386 40 65V95C40 97.7614 42.2386 100 45 100H55C57.7614 100 60 97.7614 60 95V65C60 62.2386 62.2386 60 65 60H95C97.7614 60 100 57.7614 100 55V45C100 42.2386 97.7614 40 95 40H65C62.2386 40 60 37.7614 60 35V5Z"/>
    </mask>
    <path fill-rule="evenodd" clip-rule="evenodd" d="M60 5C60 2.23858 57.7614 0 55 0H45C42.2386 0 40 2.23858 40 5V35C40 37.7614 37.7614 40 35 40H5C2.23858 40 0 42.2386 0 45V55C0 57.7614 2.23858 60 5 60H35C37.7614 60 40 62.2386 40 65V95C40 97.7614 42.2386 100 45 100H55C57.7614 100 60 97.7614 60 95V65C60 62.2386 62.2386 60 65 60H95C97.7614 60 100 57.7614 100 55V45C100 42.2386 97.7614 40 95 40H65C62.2386 40 60 37.7614 60 35V5Z" fill="#F0F0F0"/>
    <path d="M45 1H55V-1H45V1ZM41 35V5H39V35H41ZM5 41H35V39H5V41ZM1 55V45H-1V55H1ZM35 59H5V61H35V59ZM41 95V65H39V95H41ZM55 99H45V101H55V99ZM59 65V95H61V65H59ZM95 59H65V61H95V59ZM99 45V55H101V45H99ZM65 41H95V39H65V41ZM59 5V35H61V5H59ZM65 39C62.7909 39 61 37.2091 61 35H59C59 38.3137 61.6863 41 65 41V39ZM101 45C101 41.6863 98.3137 39 95 39V41C97.2091 41 99 42.7909 99 45H101ZM95 61C98.3137 61 101 58.3137 101 55H99C99 57.2091 97.2091 59 95 59V61ZM61 65C61 62.7909 62.7909 61 65 61V59C61.6863 59 59 61.6863 59 65H61ZM55 101C58.3137 101 61 98.3137 61 95H59C59 97.2091 57.2091 99 55 99V101ZM39 95C39 98.3137 41.6863 101 45 101V99C42.7909 99 41 97.2091 41 95H39ZM35 61C37.2091 61 39 62.7909 39 65H41C41 61.6863 38.3137 59 35 59V61ZM-1 55C-1 58.3137 1.68629 61 5 61V59C2.79086 59 1 57.2091 1 55H-1ZM5 39C1.68629 39 -1 41.6863 -1 45H1C1 42.7909 2.79086 41 5 41V39ZM39 35C39 37.2091 37.2091 39 35 39V41C38.3137 41 41 38.3137 41 35H39ZM55 1C57.2091 1 59 2.79086 59 5H61C61 1.68629 58.3137 -1 55 -1V1ZM45 -1C41.6863 -1 39 1.68629 39 5H41C41 2.79086 42.7909 1 45 1V-1Z" fill="black" mask="url(#path-1-inside-1_273_136)"/>
</svg>
